<?xml version="1.0" standalone="no"?><!DOCTYPE svg PUBLIC "-//W3C//DTD SVG 1.1//EN" "http://www.w3.org/Graphics/SVG/1.1/DTD/svg11.dtd"><svg t="1492850681754" class="icon" style="" viewBox="0 0 1024 1024" version="1.1" xmlns="http://www.w3.org/2000/svg" p-id="2374" xmlns:xlink="http://www.w3.org/1999/xlink" width="16" height="16"><defs><style type="text/css"></style></defs><path d="M192.420963 903.58449c0 25.2685 20.656459 45.779649 46.115294 45.779649l547.236526 0c25.458835 0 46.115294-20.511149 46.115294-45.779649L831.888076 309.84893 192.420963 309.84893 192.420963 903.58449zM585.939501 432.871825c0-13.571087 10.999518-24.595164 24.595164-24.595164l49.189306 0c13.594623 0 24.595164 11.023054 24.595164 24.595164l0 393.518538c0 13.5936-11.000542 24.593118-24.595164 24.593118l-49.189306 0c-13.595646 0-24.595164-10.999518-24.595164-24.593118L585.939501 432.871825zM339.989903 432.871825c0-13.571087 11.000542-24.595164 24.595164-24.595164l49.189306 0c13.594623 0 24.595164 11.023054 24.595164 24.595164l0 393.518538c0 13.5936-11.000542 24.593118-24.595164 24.593118l-49.189306 0c-13.594623 0-24.595164-10.999518-24.595164-24.593118L339.989903 432.871825z" p-id="2375"></path><path d="M834.962088 161.703869 585.939501 161.703869 585.939501 109.75266c0-25.292036-20.657482-45.804209-46.115294-45.804209l-55.338353 0c-25.458835 0-46.115294 20.512173-46.115294 45.804209l0 51.951209L189.346951 161.703869c-25.457812 0-46.115294 20.48659-46.115294 45.779649l0 51.950186 737.846748 0 0-51.950186C881.078405 182.190459 860.420923 161.703869 834.962088 161.703869z" p-id="2376"></path></svg>