<?xml version="1.0" encoding="UTF-8"?>
<svg width="16px" height="16px" viewBox="0 0 16 16" version="1.1" xmlns="http://www.w3.org/2000/svg" xmlns:xlink="http://www.w3.org/1999/xlink">
    <!-- Generator: Sketch 43.1 (39012) - http://www.bohemiancoding.com/sketch -->
    <title>ic_位置_hover</title>
    <desc>Created with Sketch.</desc>
    <defs></defs>
    <g id="Symbols" stroke="none" stroke-width="1" fill="none" fill-rule="evenodd">
        <g id="ic_位置_hover" fill="#606060">
            <g id="ic_位置">
                <g id="Group-8">
                    <path d="M8,14 C4.6862915,14 2,11.3137085 2,8 C2,4.6862915 4.6862915,2 8,2 C11.3137085,2 14,4.6862915 14,8 C14,11.3137085 11.3137085,14 8,14 Z M8,12 C10.209139,12 12,10.209139 12,8 C12,5.790861 10.209139,4 8,4 C5.790861,4 4,5.790861 4,8 C4,10.209139 5.790861,12 8,12 Z" id="Combined-Shape"></path>
                    <rect id="Rectangle-14" x="7" y="0" width="2" height="3" rx="1"></rect>
                    <rect id="Rectangle-14" x="7" y="13" width="2" height="3" rx="1"></rect>
                    <rect id="Rectangle-8" x="13" y="7" width="3" height="2" rx="1"></rect>
                    <rect id="Rectangle-13" x="0" y="7" width="3" height="2" rx="1"></rect>
                    <circle id="Oval-2" cx="8" cy="8" r="2"></circle>
                </g>
            </g>
        </g>
    </g>
</svg>