<?xml version="1.0" standalone="no"?><!DOCTYPE svg PUBLIC "-//W3C//DTD SVG 1.1//EN" "http://www.w3.org/Graphics/SVG/1.1/DTD/svg11.dtd"><svg t="1492354774720" class="icon" style="" viewBox="0 0 1024 1024" version="1.1" xmlns="http://www.w3.org/2000/svg" p-id="2393" xmlns:xlink="http://www.w3.org/1999/xlink" width="16" height="16"><defs><style type="text/css"></style></defs><path d="M832.00006 1024 191.99994 1024C156.65375 1024 128 995.34625 128 960.00006l0-0.00012C128 924.65375 156.65375 896 191.99994 896l640.00012 0C867.34625 896 896 924.65375 896 959.99994l0 0.00012C896 995.34625 867.34625 1024 832.00006 1024z" p-id="2394"></path><path d="M828.1178 352l-6.0e-05 0c-18.00348 0-35.26959 7.15186-47.99994 19.8822L576 576 576 64c0-35.34619-28.65381-64-64-64s-64.00055 28.65381-64.00055 64l0 512L243.88171 371.8822C231.15131 359.15186 213.88519 352 195.88177 352l-0.00012 0c-37.4903 0-67.8822 30.39185-67.8822 67.88214l0 0.00012c0 18.00348 7.15186 35.26959 19.88226 47.99994L479.99945 800l6.0e-05 0c8.83661 8.83661 20.4184 13.25488 32.00024 13.25482 11.58179 6.0e-05 23.16357-4.41821 32.00018-13.25482L544 800l332.1178-332.1178C888.84814 455.15186 896 437.88574 896 419.88226l0-0.00012C896 382.39185 865.60809 352 828.1178 352z" p-id="2395"></path></svg>