<?xml version="1.0" encoding="UTF-8"?>
<svg width="60px" height="60px" viewBox="0 0 60 60" version="1.1" xmlns="http://www.w3.org/2000/svg" xmlns:xlink="http://www.w3.org/1999/xlink">
    <!-- Generator: Sketch 43.1 (39012) - http://www.bohemiancoding.com/sketch -->
    <title>ic_关闭_hover</title>
    <desc>Created with Sketch.</desc>
    <defs></defs>
    <g id="Symbols" stroke="none" stroke-width="1" fill="none" fill-rule="evenodd">
        <g id="ic_关闭_hover">
            <g id="ic_关闭">
                <path d="M0,0 L49.9911289,0 C55.5188758,0 60,4.48521396 60,10.0088711 L60,60 L0,60 L0,0 Z" id="Rectangle" fill="#CC5252"></path>
                <path d="M22.3773521,35.7372153 L22.3718262,35.7316895 L28.1134986,29.9953911 L22.3528259,24.2401103 L22.3543756,24.2385606 C22.1344215,24.0008065 22,23.6827678 22,23.3333333 C22,22.5969537 22.5969537,22 23.3333333,22 C23.7213117,22 24.0705861,22.1657113 24.3142399,22.4302171 L30,28.1106555 L35.6857601,22.4302171 C35.9294139,22.1657113 36.2786883,22 36.6666667,22 C37.4030463,22 38,22.5969537 38,23.3333333 C38,23.6827678 37.8655785,24.0008065 37.6456244,24.2385606 L37.6471741,24.2401103 L31.8865014,29.9953911 L37.6281738,35.7316895 L37.6226479,35.7372153 C37.8561813,35.9773725 38,36.3052242 38,36.6666667 C38,37.4030463 37.4030463,38 36.6666667,38 C36.2470861,38 35.8727715,37.8061938 35.6283593,37.5032179 L30,31.8801267 L24.3716407,37.5032179 C24.1272285,37.8061938 23.7529139,38 23.3333333,38 C22.5969537,38 22,37.4030463 22,36.6666667 C22,36.3052242 22.1438187,35.9773725 22.3773521,35.7372153 Z" id="Rectangle-478" fill="#FFFFFF"></path>
            </g>
        </g>
    </g>
</svg>