<?xml version="1.0" encoding="UTF-8"?>
<svg width="32px" height="32px" viewBox="0 0 32 32" version="1.1" xmlns="http://www.w3.org/2000/svg" xmlns:xlink="http://www.w3.org/1999/xlink">
    <!-- Generator: Sketch 43.1 (39012) - http://www.bohemiancoding.com/sketch -->
    <title>ic_搜索</title>
    <desc>Created with Sketch.</desc>
    <defs></defs>
    <g id="Symbols" stroke="none" stroke-width="1" fill="none" fill-rule="evenodd">
        <g id="ic_搜索" fill="#A2A2A2">
            <g id="Group-2">
                <g transform="translate(4.000000, 4.000000)">
                    <path d="M10.8837209,21.7674419 C4.87280784,21.7674419 0,16.894634 0,10.8837209 C0,4.87280784 4.87280784,0 10.8837209,0 C16.894634,0 21.7674419,4.87280784 21.7674419,10.8837209 C21.7674419,16.894634 16.894634,21.7674419 10.8837209,21.7674419 Z M10.8837209,19.9534884 C15.8928152,19.9534884 19.9534884,15.8928152 19.9534884,10.8837209 C19.9534884,5.87462669 15.8928152,1.81395349 10.8837209,1.81395349 C5.87462669,1.81395349 1.81395349,5.87462669 1.81395349,10.8837209 C1.81395349,15.8928152 5.87462669,19.9534884 10.8837209,19.9534884 Z" id="Combined-Shape"></path>
                    <rect id="Rectangle-4" transform="translate(20.387334, 21.596637) rotate(-45.000000) translate(-20.387334, -21.596637) " x="19.4803576" y="16.7594273" width="1.81395349" height="9.6744186" rx="0.906976744"></rect>
                </g>
            </g>
        </g>
    </g>
</svg>